<svg xmlns="http://www.w3.org/2000/svg" width="73" height="20" viewBox="0 0 73 20">
  <g fill="#FFF">
    <g transform="translate(26 4)">
      <polygon points="1.216 11.456 1.216 4.816 1.072 2.032 1.088 2.032 4.56 11.456 5.648 11.456 9.12 2.032 9.136 2.032 8.992 4.816 8.992 11.456 10.208 11.456 10.208 .896 8.24 .896 5.936 7.328 5.12 9.952 5.088 9.952 4.288 7.312 1.968 .896 0 .896 0 11.456"/>
      <path d="M14.064,1.92 C14.352,1.92 14.584,1.832 14.76,1.656 C14.936,1.48 15.024,1.248 15.024,0.96 C15.024,0.672 14.936,0.44 14.76,0.264 C14.584,0.088 14.352,0 14.064,0 C13.776,0 13.544,0.088 13.368,0.264 C13.192,0.44 13.104,0.672 13.104,0.96 C13.104,1.248 13.192,1.48 13.368,1.656 C13.544,1.832 13.776,1.92 14.064,1.92 Z"/>
      <polygon points="14.704 11.456 14.704 3.456 13.424 3.456 13.424 11.456"/>
      <path d="M18.96 11.456L18.96 7.136C18.96 6.57066667 19.064 6.088 19.272 5.688 19.48 5.288 19.7466667 4.98933333 20.072 4.792 20.3973333 4.59466667 20.7306667 4.496 21.072 4.496 21.488 4.496 21.824 4.56533333 22.08 4.704L22.08 4.704 22.336 3.456C22.1333333 3.34933333 21.84 3.296 21.456 3.296 20.1973333 3.296 19.344 3.78666667 18.896 4.768L18.896 4.768 18.72 3.456 17.68 3.456 17.68 11.456 18.96 11.456zM24.848 1.92C25.136 1.92 25.368 1.832 25.544 1.656 25.72 1.48 25.808 1.248 25.808.96 25.808.672 25.72.44 25.544.264 25.368.088 25.136 0 24.848 0 24.56 0 24.328.088 24.152.264 23.976.44 23.888.672 23.888.96 23.888 1.248 23.976 1.48 24.152 1.656 24.328 1.832 24.56 1.92 24.848 1.92z"/>
      <polygon points="25.488 11.456 25.488 3.456 24.208 3.456 24.208 11.456"/>
      <path d="M38.192,11.616 C39.536,11.616 40.5626667,11.272 41.272,10.584 C41.9813333,9.896 42.336,8.87466667 42.336,7.52 L42.336,7.52 L42.336,0.896 L41.056,0.896 L41.056,7.2 C41.056,8.30933333 40.824,9.12266667 40.36,9.64 C39.896,10.1573333 39.1733333,10.416 38.192,10.416 C37.2106667,10.416 36.488,10.1573333 36.024,9.64 C35.56,9.12266667 35.328,8.30933333 35.328,7.2 L35.328,7.2 L35.328,0.896 L34.048,0.896 L34.048,7.52 C34.048,8.864 34.4026667,9.88266667 35.112,10.576 C35.8213333,11.2693333 36.848,11.616 38.192,11.616 Z"/>
      <polygon points="46.96 11.456 46.96 .896 45.68 .896 45.68 11.456"/>
    </g>
    <path d="M10,20 C4.48609848,20 0,15.5139015 0,10 C0,4.48609848 4.48609848,0 10,0 C15.5139015,0 20,4.48609848 20,10 C20,15.5139015 15.5139015,20 10,20 Z M10,1.25 C5.17518939,1.25 1.25,5.17518939 1.25,10 C1.25,14.8248106 5.17518939,18.75 10,18.75 C14.8248106,18.75 18.75,14.8248106 18.75,10 C18.75,5.17518939 14.8248106,1.25 10,1.25 Z"/>
    <path d="M10,13.75 C7.93212121,13.75 6.25,12.0678788 6.25,10 C6.25,7.93212121 7.93212121,6.25 10,6.25 C12.0678788,6.25 13.75,7.93212121 13.75,10 C13.75,12.0678788 12.0678788,13.75 10,13.75 Z M10,7.5 C8.62121212,7.5 7.5,8.62121212 7.5,10 C7.5,11.3787879 8.62121212,12.5 10,12.5 C11.3787879,12.5 12.5,11.3787879 12.5,10 C12.5,8.62121212 11.3787879,7.5 10,7.5 Z"/>
    <path d="M10,11.25 C9.31090909,11.25 8.75,10.6890909 8.75,10 C8.75,9.31090909 9.31090909,8.75 10,8.75 C10.6890909,8.75 11.25,9.31090909 11.25,10 C11.25,10.6890909 10.6890909,11.25 10,11.25 Z"/>
  </g>
</svg>
